<?xml version="1.0" encoding="UTF-8"?>
<svg xmlns="http://www.w3.org/2000/svg" width="100px" height="100px" viewBox="0 0 100 100" version="1.1">
<defs>
<clipPath id="clip1">
  <path d="M 59.75 38.453125 L 65.867188 38.453125 L 65.867188 44.535156 L 59.75 44.535156 Z M 59.75 38.453125 "/>
</clipPath>
<clipPath id="clip2">
  <path d="M 59.75 45.332031 L 65.867188 45.332031 L 65.867188 51.464844 L 59.75 51.464844 Z M 59.75 45.332031 "/>
</clipPath>
<clipPath id="clip3">
  <path d="M 59.75 52.265625 L 65.867188 52.265625 L 65.867188 58.398438 L 59.75 58.398438 Z M 59.75 52.265625 "/>
</clipPath>
<clipPath id="clip4">
  <path d="M 59.75 59 L 65.867188 59 L 65.867188 65.253906 L 59.75 65.253906 Z M 59.75 59 "/>
</clipPath>
<clipPath id="clip5">
  <path d="M 66.398438 59 L 72.800781 59 L 72.800781 65.253906 L 66.398438 65.253906 Z M 66.398438 59 "/>
</clipPath>
<clipPath id="clip6">
  <path d="M 73.332031 59 L 79.734375 59 L 79.734375 65.253906 L 73.332031 65.253906 Z M 73.332031 59 "/>
</clipPath>
<clipPath id="clip7">
  <path d="M 80.265625 59 L 86.550781 59 L 86.550781 65.253906 L 80.265625 65.253906 Z M 80.265625 59 "/>
</clipPath>
</defs>
<g id="surface1">
<rect x="0" y="0" width="100" height="100" style="fill:rgb(100%,100%,100%);fill-opacity:1;stroke:none;"/>
<g clip-path="url(#clip1)" clip-rule="nonzero">
<path style=" stroke:none;fill-rule:nonzero;fill:rgb(0%,63.921569%,34.901961%);fill-opacity:1;" d="M 59.75 38.453125 L 65.777344 38.453125 L 65.777344 44.480469 L 59.75 44.480469 Z M 59.75 38.453125 "/>
</g>
<g clip-path="url(#clip2)" clip-rule="nonzero">
<path style=" stroke:none;fill-rule:nonzero;fill:rgb(0%,63.921569%,34.901961%);fill-opacity:1;" d="M 59.75 45.363281 L 65.777344 45.363281 L 65.777344 51.390625 L 59.75 51.390625 Z M 59.75 45.363281 "/>
</g>
<g clip-path="url(#clip3)" clip-rule="nonzero">
<path style=" stroke:none;fill-rule:nonzero;fill:rgb(0%,63.921569%,34.901961%);fill-opacity:1;" d="M 59.75 52.273438 L 65.777344 52.273438 L 65.777344 58.300781 L 59.75 58.300781 Z M 59.75 52.273438 "/>
</g>
<g clip-path="url(#clip4)" clip-rule="nonzero">
<path style=" stroke:none;fill-rule:nonzero;fill:rgb(0%,63.921569%,34.901961%);fill-opacity:1;" d="M 59.75 59.183594 L 65.777344 59.183594 L 65.777344 65.210938 L 59.75 65.210938 Z M 59.75 59.183594 "/>
</g>
<path style=" stroke:none;fill-rule:nonzero;fill:rgb(0%,71.764706%,39.215686%);fill-opacity:1;" d="M 66.660156 45.363281 L 72.6875 45.363281 L 72.6875 51.390625 L 66.660156 51.390625 Z M 66.660156 45.363281 "/>
<path style=" stroke:none;fill-rule:nonzero;fill:rgb(0%,71.764706%,39.215686%);fill-opacity:1;" d="M 66.660156 52.273438 L 72.6875 52.273438 L 72.6875 58.300781 L 66.660156 58.300781 Z M 66.660156 52.273438 "/>
<g clip-path="url(#clip5)" clip-rule="nonzero">
<path style=" stroke:none;fill-rule:nonzero;fill:rgb(0%,71.764706%,39.215686%);fill-opacity:1;" d="M 66.660156 59.183594 L 72.6875 59.183594 L 72.6875 65.210938 L 66.660156 65.210938 Z M 66.660156 59.183594 "/>
</g>
<path style=" stroke:none;fill-rule:nonzero;fill:rgb(0%,88.235294%,48.235294%);fill-opacity:1;" d="M 73.570312 52.273438 L 79.597656 52.273438 L 79.597656 58.300781 L 73.570312 58.300781 Z M 73.570312 52.273438 "/>
<g clip-path="url(#clip6)" clip-rule="nonzero">
<path style=" stroke:none;fill-rule:nonzero;fill:rgb(0%,88.235294%,48.235294%);fill-opacity:1;" d="M 73.570312 59.183594 L 79.597656 59.183594 L 79.597656 65.210938 L 73.570312 65.210938 Z M 73.570312 59.183594 "/>
</g>
<g clip-path="url(#clip7)" clip-rule="nonzero">
<path style=" stroke:none;fill-rule:nonzero;fill:rgb(0%,100%,54.509804%);fill-opacity:1;" d="M 80.480469 59.183594 L 86.507812 59.183594 L 86.507812 65.210938 L 80.480469 65.210938 Z M 80.480469 59.183594 "/>
</g>
<path style=" stroke:none;fill-rule:nonzero;fill:rgb(0%,0%,0%);fill-opacity:1;" d="M 14.019531 44.304688 L 13.429688 49.824219 L 11.191406 49.824219 L 10.039062 39.464844 L 11.621094 39.464844 L 12.496094 47.632812 L 13.28125 39.464844 L 14.851562 39.464844 L 15.664062 47.695312 L 16.507812 39.464844 L 17.925781 39.464844 L 16.769531 49.824219 L 14.613281 49.824219 Z M 14.019531 44.304688 "/>
<path style=" stroke:none;fill-rule:nonzero;fill:rgb(0%,0%,0%);fill-opacity:1;" d="M 20.238281 47.441406 C 20.238281 47.816406 20.3125 48.082031 20.464844 48.234375 C 20.617188 48.386719 20.824219 48.460938 21.078125 48.460938 C 21.335938 48.460938 21.542969 48.386719 21.695312 48.234375 C 21.847656 48.082031 21.925781 47.816406 21.925781 47.441406 L 21.925781 41.84375 C 21.925781 41.46875 21.847656 41.207031 21.695312 41.054688 C 21.542969 40.902344 21.335938 40.824219 21.078125 40.824219 C 20.824219 40.824219 20.617188 40.902344 20.464844 41.054688 C 20.3125 41.207031 20.238281 41.46875 20.238281 41.84375 Z M 18.609375 41.949219 C 18.609375 41.109375 18.820312 40.46875 19.246094 40.019531 C 19.671875 39.570312 20.28125 39.34375 21.078125 39.34375 C 21.878906 39.34375 22.488281 39.570312 22.914062 40.019531 C 23.335938 40.46875 23.550781 41.109375 23.550781 41.949219 L 23.550781 47.335938 C 23.550781 48.175781 23.335938 48.820312 22.914062 49.269531 C 22.488281 49.71875 21.878906 49.941406 21.078125 49.941406 C 20.28125 49.941406 19.671875 49.71875 19.246094 49.269531 C 18.820312 48.820312 18.609375 48.175781 18.609375 47.335938 Z M 18.609375 41.949219 "/>
<path style=" stroke:none;fill-rule:nonzero;fill:rgb(0%,0%,0%);fill-opacity:1;" d="M 28.007812 49.824219 C 27.988281 49.753906 27.964844 49.691406 27.949219 49.632812 C 27.929688 49.574219 27.910156 49.5 27.894531 49.410156 C 27.878906 49.324219 27.871094 49.210938 27.863281 49.070312 C 27.863281 48.929688 27.859375 48.757812 27.859375 48.554688 L 27.859375 46.925781 C 27.859375 46.441406 27.773438 46.101562 27.605469 45.902344 C 27.441406 45.707031 27.167969 45.609375 26.792969 45.609375 L 26.230469 45.609375 L 26.230469 49.824219 L 24.601562 49.824219 L 24.601562 39.464844 L 27.058594 39.464844 C 27.90625 39.464844 28.519531 39.664062 28.902344 40.058594 C 29.28125 40.453125 29.472656 41.046875 29.472656 41.84375 L 29.472656 42.660156 C 29.472656 43.726562 29.117188 44.425781 28.40625 44.761719 C 28.820312 44.929688 29.101562 45.207031 29.257812 45.585938 C 29.410156 45.964844 29.484375 46.425781 29.484375 46.964844 L 29.484375 48.566406 C 29.484375 48.820312 29.496094 49.046875 29.515625 49.242188 C 29.535156 49.433594 29.582031 49.628906 29.664062 49.824219 Z M 26.230469 40.945312 L 26.230469 44.125 L 26.867188 44.125 C 27.175781 44.125 27.414062 44.046875 27.585938 43.890625 C 27.757812 43.734375 27.84375 43.445312 27.84375 43.03125 L 27.84375 42.011719 C 27.84375 41.636719 27.777344 41.367188 27.644531 41.199219 C 27.511719 41.03125 27.300781 40.945312 27.015625 40.945312 Z M 26.230469 40.945312 "/>
<path style=" stroke:none;fill-rule:nonzero;fill:rgb(0%,0%,0%);fill-opacity:1;" d="M 32.683594 45.695312 L 32.179688 46.640625 L 32.179688 49.824219 L 30.550781 49.824219 L 30.550781 39.464844 L 32.179688 39.464844 L 32.179688 43.976562 L 34.308594 39.464844 L 35.9375 39.464844 L 33.675781 44.082031 L 35.9375 49.824219 L 34.269531 49.824219 Z M 32.683594 45.695312 "/>
<path style=" stroke:none;fill-rule:nonzero;fill:rgb(0%,0%,0%);fill-opacity:1;" d="M 36.203125 39.464844 L 41.238281 39.464844 L 41.238281 40.945312 L 39.539062 40.945312 L 39.539062 49.824219 L 37.90625 49.824219 L 37.90625 40.945312 L 36.203125 40.945312 Z M 36.203125 39.464844 "/>
<path style=" stroke:none;fill-rule:nonzero;fill:rgb(0%,0%,0%);fill-opacity:1;" d="M 41.949219 39.464844 L 43.578125 39.464844 L 43.578125 49.824219 L 41.949219 49.824219 Z M 41.949219 39.464844 "/>
<path style=" stroke:none;fill-rule:nonzero;fill:rgb(0%,0%,0%);fill-opacity:1;" d="M 48.210938 46.820312 L 49.316406 39.464844 L 51.585938 39.464844 L 51.585938 49.824219 L 50.042969 49.824219 L 50.042969 42.394531 L 48.917969 49.824219 L 47.378906 49.824219 L 46.167969 42.5 L 46.167969 49.824219 L 44.746094 49.824219 L 44.746094 39.464844 L 47.007812 39.464844 Z M 48.210938 46.820312 "/>
<path style=" stroke:none;fill-rule:nonzero;fill:rgb(0%,0%,0%);fill-opacity:1;" d="M 54.394531 43.828125 L 56.628906 43.828125 L 56.628906 45.3125 L 54.394531 45.3125 L 54.394531 48.34375 L 57.207031 48.34375 L 57.207031 49.824219 L 52.765625 49.824219 L 52.765625 39.464844 L 57.207031 39.464844 L 57.207031 40.945312 L 54.394531 40.945312 Z M 54.394531 43.828125 "/>
<path style=" stroke:none;fill-rule:nonzero;fill:rgb(0%,0%,0%);fill-opacity:1;" d="M 25.433594 59.21875 L 26.542969 51.867188 L 28.808594 51.867188 L 28.808594 62.222656 L 27.265625 62.222656 L 27.265625 54.796875 L 26.140625 62.222656 L 24.605469 62.222656 L 23.390625 54.898438 L 23.390625 62.222656 L 21.972656 62.222656 L 21.972656 51.867188 L 24.234375 51.867188 Z M 25.433594 59.21875 "/>
<path style=" stroke:none;fill-rule:nonzero;fill:rgb(0%,0%,0%);fill-opacity:1;" d="M 35.261719 62.222656 L 33.617188 62.222656 L 33.335938 60.34375 L 31.335938 60.34375 L 31.058594 62.222656 L 29.5625 62.222656 L 31.21875 51.867188 L 33.601562 51.867188 Z M 31.542969 58.9375 L 33.117188 58.9375 L 32.328125 53.699219 Z M 31.542969 58.9375 "/>
<path style=" stroke:none;fill-rule:nonzero;fill:rgb(0%,0%,0%);fill-opacity:1;" d="M 35.804688 54.347656 C 35.804688 53.511719 36.007812 52.867188 36.40625 52.421875 C 36.804688 51.96875 37.40625 51.746094 38.207031 51.746094 C 39.003906 51.746094 39.601562 51.96875 40 52.421875 C 40.402344 52.867188 40.601562 53.511719 40.601562 54.347656 L 40.601562 54.675781 L 39.0625 54.675781 L 39.0625 54.246094 C 39.0625 53.871094 38.992188 53.605469 38.847656 53.453125 C 38.707031 53.300781 38.507812 53.222656 38.246094 53.222656 C 37.992188 53.222656 37.792969 53.300781 37.648438 53.453125 C 37.507812 53.605469 37.433594 53.871094 37.433594 54.246094 C 37.433594 54.601562 37.515625 54.914062 37.671875 55.1875 C 37.832031 55.460938 38.027344 55.714844 38.265625 55.957031 C 38.5 56.199219 38.753906 56.441406 39.027344 56.683594 C 39.296875 56.925781 39.554688 57.1875 39.789062 57.472656 C 40.023438 57.761719 40.222656 58.085938 40.382812 58.453125 C 40.539062 58.816406 40.617188 59.246094 40.617188 59.738281 C 40.617188 60.578125 40.414062 61.21875 40 61.671875 C 39.59375 62.117188 38.988281 62.339844 38.1875 62.339844 C 37.390625 62.339844 36.789062 62.117188 36.375 61.671875 C 35.96875 61.21875 35.765625 60.578125 35.765625 59.738281 L 35.765625 59.101562 L 37.300781 59.101562 L 37.300781 59.839844 C 37.300781 60.214844 37.378906 60.476562 37.53125 60.628906 C 37.683594 60.777344 37.890625 60.847656 38.148438 60.847656 C 38.402344 60.847656 38.605469 60.777344 38.761719 60.628906 C 38.914062 60.476562 38.988281 60.214844 38.988281 59.839844 C 38.988281 59.484375 38.910156 59.171875 38.75 58.902344 C 38.59375 58.632812 38.394531 58.375 38.160156 58.132812 C 37.921875 57.890625 37.667969 57.648438 37.398438 57.40625 C 37.128906 57.164062 36.875 56.902344 36.636719 56.617188 C 36.398438 56.332031 36.203125 56.003906 36.042969 55.640625 C 35.886719 55.273438 35.804688 54.84375 35.804688 54.347656 Z M 35.804688 54.347656 "/>
<path style=" stroke:none;fill-rule:nonzero;fill:rgb(0%,0%,0%);fill-opacity:1;" d="M 41.074219 51.867188 L 46.109375 51.867188 L 46.109375 53.34375 L 44.40625 53.34375 L 44.40625 62.222656 L 42.777344 62.222656 L 42.777344 53.34375 L 41.074219 53.34375 Z M 41.074219 51.867188 "/>
<path style=" stroke:none;fill-rule:nonzero;fill:rgb(0%,0%,0%);fill-opacity:1;" d="M 48.449219 56.226562 L 50.679688 56.226562 L 50.679688 57.710938 L 48.449219 57.710938 L 48.449219 60.746094 L 51.261719 60.746094 L 51.261719 62.222656 L 46.816406 62.222656 L 46.816406 51.867188 L 51.261719 51.867188 L 51.261719 53.34375 L 48.449219 53.34375 Z M 48.449219 56.226562 "/>
<path style=" stroke:none;fill-rule:nonzero;fill:rgb(0%,0%,0%);fill-opacity:1;" d="M 55.667969 62.222656 C 55.648438 62.15625 55.628906 62.089844 55.609375 62.03125 C 55.589844 61.972656 55.574219 61.902344 55.554688 61.8125 C 55.542969 61.722656 55.53125 61.609375 55.527344 61.46875 C 55.523438 61.332031 55.523438 61.160156 55.523438 60.953125 L 55.523438 59.324219 C 55.523438 58.839844 55.4375 58.5 55.269531 58.304688 C 55.101562 58.105469 54.832031 58.007812 54.457031 58.007812 L 53.894531 58.007812 L 53.894531 62.222656 L 52.265625 62.222656 L 52.265625 51.867188 L 54.722656 51.867188 C 55.570312 51.867188 56.183594 52.0625 56.566406 52.457031 C 56.945312 52.851562 57.136719 53.449219 57.136719 54.246094 L 57.136719 55.0625 C 57.136719 56.125 56.777344 56.828125 56.070312 57.160156 C 56.480469 57.332031 56.765625 57.605469 56.917969 57.988281 C 57.070312 58.363281 57.148438 58.824219 57.148438 59.367188 L 57.148438 60.964844 C 57.148438 61.222656 57.15625 61.445312 57.175781 61.640625 C 57.195312 61.832031 57.246094 62.027344 57.328125 62.222656 Z M 53.894531 53.34375 L 53.894531 56.523438 L 54.53125 56.523438 C 54.835938 56.523438 55.074219 56.445312 55.246094 56.289062 C 55.417969 56.132812 55.507812 55.847656 55.507812 55.433594 L 55.507812 54.410156 C 55.507812 54.035156 55.441406 53.765625 55.304688 53.597656 C 55.171875 53.429688 54.960938 53.34375 54.675781 53.34375 Z M 53.894531 53.34375 "/>
</g>
</svg>
